<svg width="308" height="170" viewBox="0 0 308 170" fill="none" xmlns="http://www.w3.org/2000/svg">
    <g filter="url(#filter0_d_1_11)">
        <path d="M85 87V79.8516H87.6074V78.5449H80.8867V79.8516H83.4883V87H85ZM100.662 85.6934H96.7012V83.3262H100.445V82.0957H96.7012V79.8516H100.662V78.5449H95.1895V87H100.662V85.6934ZM112.064 87.2109C114.016 87.2109 115.445 86.0449 115.645 84.3164H114.156C113.951 85.2656 113.137 85.8633 112.064 85.8633C110.623 85.8633 109.727 84.6797 109.727 82.7695C109.727 80.8652 110.623 79.6816 112.059 79.6816C113.125 79.6816 113.939 80.3379 114.15 81.3516H115.639C115.463 79.5879 113.98 78.334 112.059 78.334C109.662 78.334 108.18 80.0273 108.18 82.7754C108.18 85.5117 109.668 87.2109 112.064 87.2109ZM130.457 87V78.5449H128.951V82.043H124.838V78.5449H123.326V87H124.838V83.3496H128.951V87H130.457ZM156.479 87V78.5449H154.709L152.166 84.7031H152.061L149.518 78.5449H147.748V87H149.154V81.0527H149.236L151.574 86.6719H152.652L154.99 81.0527H155.072V87H156.479ZM170.02 87H171.643L168.637 78.5449H166.938L163.938 87H165.467L166.193 84.8379H169.305L170.02 87ZM167.705 80.1562H167.805L168.953 83.6426H166.545L167.705 80.1562ZM180.607 79.7988H182.318C183.279 79.7988 183.865 80.3379 183.865 81.2168C183.865 82.1133 183.314 82.6289 182.354 82.6289H180.607V79.7988ZM180.607 83.8301H182.283L183.941 87H185.67L183.824 83.5957C184.832 83.2324 185.418 82.3008 185.418 81.1875C185.418 79.5645 184.305 78.5449 182.529 78.5449H179.096V87H180.607V83.8301ZM194.764 87V84.3047L195.666 83.2676L198.338 87H200.184L196.738 82.2305L199.932 78.5449H198.197L194.863 82.4355H194.764V78.5449H193.252V87H194.764ZM213.021 85.6934H209.061V83.3262H212.805V82.0957H209.061V79.8516H213.021V78.5449H207.549V87H213.021V85.6934ZM224.512 87V79.8516H227.119V78.5449H220.398V79.8516H223V87H224.512Z" fill="white"/>
    </g>
    <defs>
        <filter id="filter0_d_1_11" x="0.886719" y="0.333984" width="306.232" height="168.877" filterUnits="userSpaceOnUse" color-interpolation-filters="sRGB">
            <feFlood flood-opacity="0" result="BackgroundImageFix"/>
            <feColorMatrix in="SourceAlpha" type="matrix" values="0 0 0 0 0 0 0 0 0 0 0 0 0 0 0 0 0 0 127 0" result="hardAlpha"/>
            <feOffset dy="2"/>
            <feGaussianBlur stdDeviation="40"/>
            <feColorMatrix type="matrix" values="0 0 0 0 1 0 0 0 0 1 0 0 0 0 1 0 0 0 1 0"/>
            <feBlend mode="normal" in2="BackgroundImageFix" result="effect1_dropShadow_1_11"/>
            <feBlend mode="normal" in="SourceGraphic" in2="effect1_dropShadow_1_11" result="shape"/>
        </filter>
    </defs>
</svg>
